HIERARCHY
ROOT Hips
{
  OFFSET 365.14 88.179 197.519
  CHANNELS 6 Xposition Yposition Zposition Zrotation Xrotation Yrotation
  JOINT RightUpLeg
  {
    OFFSET -9.25084 -1.53971 -0.0324706
    CHANNELS 3 Zrotation Xrotation Yrotation
    JOINT RightLeg
    {
      OFFSET 0.0147984 -41.8767 0.0743683
      CHANNELS 3 Zrotation Xrotation Yrotation
      JOINT RightFoot
      {
        OFFSET 0.58129 -42.7665 -0.0966173
        CHANNELS 3 Zrotation Xrotation Yrotation
        End Site
        {
          OFFSET 0 -7.69 17.5
        }
      }
    }
  }
  JOINT LeftUpLeg
  {
    OFFSET 9.27183 -1.63567 0.0208533
    CHANNELS 3 Zrotation Xrotation Yrotation
    JOINT LeftLeg
    {
      OFFSET 0.0380064 -41.894 -0.0332375
      CHANNELS 3 Zrotation Xrotation Yrotation
      JOINT LeftFoot
      {
        OFFSET -0.00137207 -40.7578 0.276477
        CHANNELS 3 Zrotation Xrotation Yrotation
        End Site
        {
          OFFSET 0 -7.69 17.5
        }
      }
    }
  }
  JOINT Spine
  {
    OFFSET 0.0273715 14.2953 0.0132618
    CHANNELS 3 Zrotation Xrotation Yrotation
    JOINT Spine1
    {
      OFFSET 0.0356242 9.71545 0.0178671
      CHANNELS 3 Zrotation Xrotation Yrotation
      JOINT Spine2
      {
        OFFSET 0.0275401 10.1205 0.00234803
        CHANNELS 3 Zrotation Xrotation Yrotation
        JOINT Spine3
        {
          OFFSET 0.0388833 9.71499 0.00573168
          CHANNELS 3 Zrotation Xrotation Yrotation
          JOINT Neck
          {
            OFFSET 0.0812761 10.3796 0.11061
            CHANNELS 3 Zrotation Xrotation Yrotation
            JOINT Head
            {
              OFFSET 0.0694951 9.4737 0.0873993
              CHANNELS 3 Zrotation Xrotation Yrotation
              End Site
              {
                OFFSET 0 15.95 0
              }
            }
          }
          JOINT RightShoulder
          {
            OFFSET -3.16911 6.92878 0.0176909
            CHANNELS 3 Zrotation Xrotation Yrotation
            JOINT RightArm
            {
              OFFSET -12.7939 0.0472484 0.0511932
              CHANNELS 3 Zrotation Xrotation Yrotation
              JOINT RightForeArm
              {
                OFFSET -26.5086 -0.00989181 0.0576382
                CHANNELS 3 Zrotation Xrotation Yrotation
                JOINT RightHand
                {
                  OFFSET -26.0357 0.339815 -0.212656
                  CHANNELS 3 Zrotation Xrotation Yrotation
                  JOINT RightHandThumb1
                  {
                    OFFSET -2.48905 0.190105 3.12053
                    CHANNELS 3 Zrotation Xrotation Yrotation
                    JOINT RightHandThumb2
                    {
                      OFFSET -3.68274 0 0
                      CHANNELS 3 Zrotation Xrotation Yrotation
                      JOINT RightHandThumb3
                      {
                        OFFSET -2.55832 0 0
                        CHANNELS 3 Zrotation Xrotation Yrotation
                        End Site
                        {
                          OFFSET -2.194 0 0
                        }
                      }
                    }
                  }
                  JOINT RightInHandIndex
                  {
                    OFFSET -3.22368 0.508421 1.97842
                    CHANNELS 3 Zrotation Xrotation Yrotation
                    JOINT RightHandIndex1
                    {
                      OFFSET -5.21684 -0.091368 0.999158
                      CHANNELS 3 Zrotation Xrotation Yrotation
                      JOINT RightHandIndex2
                      {
                        OFFSET -3.61937 0 0
                        CHANNELS 3 Zrotation Xrotation Yrotation
                        JOINT RightHandIndex3
                        {
                          OFFSET -2.0521 0 0
                          CHANNELS 3 Zrotation Xrotation Yrotation
                          End Site
                          {
                            OFFSET -1.805 0 0
                          }
                        }
                      }
                    }
                  }
                  JOINT RightInHandMiddle
                  {
                    OFFSET -3.38211 0.517263 0.756737
                    CHANNELS 3 Zrotation Xrotation Yrotation
                    JOINT RightHandMiddle1
                    {
                      OFFSET -5.17411 -0.084 0.313895
                      CHANNELS 3 Zrotation Xrotation Yrotation
                      JOINT RightHandMiddle2
                      {
                        OFFSET -3.94947 0 0
                        CHANNELS 3 Zrotation Xrotation Yrotation
                        JOINT RightHandMiddle3
                        {
                          OFFSET -2.47579 0 0
                          CHANNELS 3 Zrotation Xrotation Yrotation
                          End Site
                          {
                            OFFSET -1.975 0 0
                          }
                        }
                      }
                    }
                  }
                  JOINT RightInHandRing
                  {
                    OFFSET -3.36516 0.537895 -0.128947
                    CHANNELS 3 Zrotation Xrotation Yrotation
                    JOINT RightHandRing1
                    {
                      OFFSET -4.63474 -0.022105 -0.478947
                      CHANNELS 3 Zrotation Xrotation Yrotation
                      JOINT RightHandRing2
                      {
                        OFFSET -3.44238 0 0
                        CHANNELS 3 Zrotation Xrotation Yrotation
                        JOINT RightHandRing3
                        {
                          OFFSET -2.3881 0 0
                          CHANNELS 3 Zrotation Xrotation Yrotation
                          End Site
                          {
                            OFFSET -1.857 0 0
                          }
                        }
                      }
                    }
                  }
                  JOINT RightInHandPinky
                  {
                    OFFSET -3.16105 0.469368 -1.20179
                    CHANNELS 3 Zrotation Xrotation Yrotation
                    JOINT RightHandPinky1
                    {
                      OFFSET -4.14105 -0.022105 -1.09053
                      CHANNELS 3 Zrotation Xrotation Yrotation
                      JOINT RightHandPinky2
                      {
                        OFFSET -2.75653 0 0
                        CHANNELS 3 Zrotation Xrotation Yrotation
                        JOINT RightHandPinky3
                        {
                          OFFSET -1.74189 0 0
                          CHANNELS 3 Zrotation Xrotation Yrotation
                          End Site
                          {
                            OFFSET -1.645 0 0
                          }
                        }
                      }
                    }
                  }
                }
              }
            }
          }
          JOINT LeftShoulder
          {
            OFFSET 3.24184 6.89832 -0.0228965
            CHANNELS 3 Zrotation Xrotation Yrotation
            JOINT LeftArm
            {
              OFFSET 12.8376 -0.0155948 -0.0448787
              CHANNELS 3 Zrotation Xrotation Yrotation
              JOINT LeftForeArm
              {
                OFFSET 26.5019 -0.0237061 -0.00609661
                CHANNELS 3 Zrotation Xrotation Yrotation
                JOINT LeftHand
                {
                  OFFSET 25.9931 -0.0767526 0.00928659
                  CHANNELS 3 Zrotation Xrotation Yrotation
                  JOINT LeftHandThumb1
                  {
                    OFFSET 2.48905 0.190105 3.12053
                    CHANNELS 3 Zrotation Xrotation Yrotation
                    JOINT LeftHandThumb2
                    {
                      OFFSET 3.68274 0 0
                      CHANNELS 3 Zrotation Xrotation Yrotation
                      JOINT LeftHandThumb3
                      {
                        OFFSET 2.55832 0 0
                        CHANNELS 3 Zrotation Xrotation Yrotation
                        End Site
                        {
                          OFFSET 2.194 0 0
                        }
                      }
                    }
                  }
                  JOINT LeftInHandIndex
                  {
                    OFFSET 3.22368 0.508421 1.97842
                    CHANNELS 3 Zrotation Xrotation Yrotation
                    JOINT LeftHandIndex1
                    {
                      OFFSET 5.21684 -0.091368 0.999158
                      CHANNELS 3 Zrotation Xrotation Yrotation
                      JOINT LeftHandIndex2
                      {
                        OFFSET 3.61937 0 0
                        CHANNELS 3 Zrotation Xrotation Yrotation
                        JOINT LeftHandIndex3
                        {
                          OFFSET 2.0521 0 0
                          CHANNELS 3 Zrotation Xrotation Yrotation
                          End Site
                          {
                            OFFSET 1.805 0 0
                          }
                        }
                      }
                    }
                  }
                  JOINT LeftInHandMiddle
                  {
                    OFFSET 3.38211 0.517263 0.756737
                    CHANNELS 3 Zrotation Xrotation Yrotation
                    JOINT LeftHandMiddle1
                    {
                      OFFSET 5.17411 -0.084 0.313895
                      CHANNELS 3 Zrotation Xrotation Yrotation
                      JOINT LeftHandMiddle2
                      {
                        OFFSET 3.94947 0 0
                        CHANNELS 3 Zrotation Xrotation Yrotation
                        JOINT LeftHandMiddle3
                        {
                          OFFSET 2.47579 0 0
                          CHANNELS 3 Zrotation Xrotation Yrotation
                          End Site
                          {
                            OFFSET 1.975 0 0
                          }
                        }
                      }
                    }
                  }
                  JOINT LeftInHandRing
                  {
                    OFFSET 3.36516 0.537895 -0.128947
                    CHANNELS 3 Zrotation Xrotation Yrotation
                    JOINT LeftHandRing1
                    {
                      OFFSET 4.63474 -0.022105 -0.478947
                      CHANNELS 3 Zrotation Xrotation Yrotation
                      JOINT LeftHandRing2
                      {
                        OFFSET 3.44238 0 0
                        CHANNELS 3 Zrotation Xrotation Yrotation
                        JOINT LeftHandRing3
                        {
                          OFFSET 2.3881 0 0
                          CHANNELS 3 Zrotation Xrotation Yrotation
                          End Site
                          {
                            OFFSET 1.857 0 0
                          }
                        }
                      }
                    }
                  }
                  JOINT LeftInHandPinky
                  {
                    OFFSET 3.16105 0.469368 -1.20179
                    CHANNELS 3 Zrotation Xrotation Yrotation
                    JOINT LeftHandPinky1
                    {
                      OFFSET 4.14105 -0.022105 -1.09053
                      CHANNELS 3 Zrotation Xrotation Yrotation
                      JOINT LeftHandPinky2
                      {
                        OFFSET 2.75653 0 0
                        CHANNELS 3 Zrotation Xrotation Yrotation
                        JOINT LeftHandPinky3
                        {
                          OFFSET 1.74189 0 0
                          CHANNELS 3 Zrotation Xrotation Yrotation
                          End Site
                          {
                            OFFSET 1.645 0 0
                          }
                        }
                      }
                    }
                  }
                }
              }
            }
          }
        }
      }
    }
  }
}
MOTION
Frames: 3
Frame Time: 0.00833333
6.001877498108284499e+02 -6.830655078647392565e-04 1.582835315186071068e-01 4.484631565231821104e-02 -7.291963627752204302e-02 -9.128854517059672991e-02 -1.088199968827053277e-01 -1.007931516184324694e-01 -1.487433751665173387e-01 -1.654504294016812677e-02 -2.218877615876790194e-02 -4.246092391817531120e-02 7.079531843134681535e-02 6.326050828381514501e-02 1.834782955151908757e-01 -1.719708566322194210e-01 -2.686794148011806271e-02 -2.066345408527610616e-01 -2.039856239054130271e-02 3.259024807411407820e-02 2.384383990001418333e-02 1.968416986369266874e-01 -3.020569452629080429e-02 2.641942621170137451e-01 1.622800877792089924e-01 9.248458309955466874e-03 -1.562909175856023181e-01 3.600598774592296547e-02 -6.562003948983067755e-03 -3.280010636280813324e-02 5.950387800315046910e-02 -9.150046947168683983e-03 -4.887488880321848306e-02 -1.197009754209491135e-02 5.529013800271029289e-03 -2.093121964281989197e-02 -7.813904159201830180e-02 -8.736880916348747916e-02 2.254082672371755247e-01 -1.387660350853110736e-01 2.733561877075946223e-01 -5.207416772936089844e-01 -4.424093209429544316e-01 -1.423956009804347167e-01 3.666201780894225437e-01 -1.864431588507551862e-01 2.026886941501903905e-01 -1.374470164120589755e-01 -1.333710562581664316e+00 1.242697861879005217e+00 -1.292463179056560607e+00 -3.376613953640256738e-01 2.013977072631417398e-01 2.156077633068833460e-02 0.000000000000000000e+00 0.000000000000000000e+00 0.000000000000000000e+00 -5.676642786793850738e-16 -7.557818371322657747e-16 0.000000000000000000e+00 1.853678573696648784e-15 -1.512062418781762221e-15 0.000000000000000000e+00 -2.075336988656691427e-15 -3.070224478627926737e-15 -1.033113890341692368e-16 0.000000000000000000e+00 0.000000000000000000e+00 0.000000000000000000e+00 0.000000000000000000e+00 -7.142301441713151729e-16 8.078766665422525670e-15 0.000000000000000000e+00 4.312218811646339205e-15 2.352708763184133851e-15 -2.075336988656691427e-15 -3.070224478627926737e-15 -1.033113890341692368e-16 0.000000000000000000e+00 -2.502077419207163526e-16 -1.355663483120801532e-14 0.000000000000000000e+00 -5.394460327873828599e-15 -5.640147483427852687e-15 0.000000000000000000e+00 -2.436514953670582139e-15 1.459228057811855651e-15 -2.075336988656691427e-15 -3.070224478627926737e-15 -1.033113890341692368e-16 0.000000000000000000e+00 0.000000000000000000e+00 0.000000000000000000e+00 0.000000000000000000e+00 -2.928295427551494384e-15 -1.030323929218935238e-14 0.000000000000000000e+00 2.647199207566650707e-15 1.763196311679671047e-15 -2.075336988656691427e-15 -3.070224478627926737e-15 -1.033113890341692368e-16 0.000000000000000000e+00 0.000000000000000000e+00 0.000000000000000000e+00 0.000000000000000000e+00 -9.840092891228659726e-17 -4.295208217341165775e-15 0.000000000000000000e+00 -1.359786307838720334e-15 8.031035738596135260e-16 -4.501419893279712259e-01 4.120225543323563500e-01 6.279623874966613339e-01 1.994759233506577134e+00 -2.083053336344639073e-01 -1.532167109617589063e+00 2.224270498805799856e-01 1.175310063815500627e-01 6.560337655257062472e-01 -5.724105063327178389e-01 -3.343894558794860972e-01 -2.958274064485465482e-01 0.000000000000000000e+00 0.000000000000000000e+00 0.000000000000000000e+00 6.027528571258238478e-15 -4.644355047589830847e-15 0.000000000000000000e+00 2.239552605372193844e-15 -7.444070954166665989e-16 0.000000000000000000e+00 7.636734938395434085e-16 1.118130790049105155e-15 1.339455165861467771e-16 0.000000000000000000e+00 0.000000000000000000e+00 0.000000000000000000e+00 0.000000000000000000e+00 -8.619955351638477116e-16 1.193605200501770125e-15 0.000000000000000000e+00 2.028440790167579041e-15 4.626613825562504720e-16 7.636734938395434085e-16 1.118130790049105155e-15 1.339455165861467771e-16 0.000000000000000000e+00 8.591085650854412615e-16 2.197837929053575382e-15 0.000000000000000000e+00 -1.356771983002340110e-15 -4.295454783400334485e-16 0.000000000000000000e+00 -1.743016569953457993e-16 3.707876113000391949e-15 7.636734938395434085e-16 1.118130790049105155e-15 1.339455165861467771e-16 0.000000000000000000e+00 0.000000000000000000e+00 0.000000000000000000e+00 0.000000000000000000e+00 -7.851456568374155518e-16 3.684436774675978696e-15 0.000000000000000000e+00 -1.143881563585313726e-15 1.410357621414518460e-15 7.636734938395434085e-16 1.118130790049105155e-15 1.339455165861467771e-16 0.000000000000000000e+00 0.000000000000000000e+00 0.000000000000000000e+00 0.000000000000000000e+00 1.850723055570835990e-15 -1.479614937994177669e-15 0.000000000000000000e+00 1.890375286373284389e-15 2.604569255791788934e-15
6.001599763104032945e+02 -5.758534156115767064e-04 1.322256435458583346e-01 3.489994188750959042e-02 -5.052275908032416440e-02 -7.654093943499530595e-02 -8.202855860952515399e-02 -9.603803230090215970e-02 -1.148737405558154373e-01 -1.343546743333520407e-02 -7.242436048775502400e-03 -5.022620288227931662e-02 6.340393570469704532e-02 4.637073586100765032e-02 1.603756938082109007e-01 -1.252658100731040836e-01 -2.797023749112917748e-02 -1.573516723023263286e-01 -8.488883768585057596e-03 2.166616141774185475e-02 8.671875663374146309e-03 1.663419722760598185e-01 -1.382121795675051411e-02 2.201850992068050406e-01 1.128308428032763905e-01 1.829274681993541679e-02 -1.140925940624936685e-01 2.488036987095587280e-02 -2.710743790785708016e-03 -2.429792937255160004e-02 4.119810994455957998e-02 -3.414286763236541126e-03 -3.595867789096431066e-02 -8.201248114070440118e-03 4.761871080517534466e-03 -2.082901941820381950e-02 -6.492722650274528051e-02 -7.498172199192774945e-02 1.791760178788284197e-01 -8.698406650106808857e-02 2.310899007744840195e-01 -4.945057761131503860e-01 -3.767289531393667734e-01 -1.619535101661349619e-01 3.218336854380772216e-01 -2.110301042807177507e-01 2.219134752653403320e-01 -1.245425829246554900e-01 -1.378799068683701279e+00 1.148074147785552723e+00 -1.415200943442225245e+00 -2.550171902717668360e-01 5.976780231899682383e-02 9.657433549364657921e-02 0.000000000000000000e+00 0.000000000000000000e+00 0.000000000000000000e+00 -4.594042949874556780e-16 -8.265326263824571048e-16 0.000000000000000000e+00 1.605228143444355244e-15 -1.385160310557700948e-15 0.000000000000000000e+00 -1.830175671889334570e-15 -3.267959809188477478e-15 -2.126075356063730391e-17 0.000000000000000000e+00 0.000000000000000000e+00 0.000000000000000000e+00 0.000000000000000000e+00 -5.676316758381250814e-16 7.894915454082513092e-15 0.000000000000000000e+00 4.008821505557422579e-15 3.300405152582357873e-15 -1.830175671889334570e-15 -3.267959809188477478e-15 -2.126075356063730391e-17 0.000000000000000000e+00 -1.319336894211518561e-15 -1.526153614384766965e-14 0.000000000000000000e+00 -4.923935923700229425e-15 -4.929296854445825631e-15 0.000000000000000000e+00 -2.320626113328955069e-15 1.692440761969918018e-15 -1.830175671889334570e-15 -3.267959809188477478e-15 -2.126075356063730391e-17 0.000000000000000000e+00 0.000000000000000000e+00 0.000000000000000000e+00 0.000000000000000000e+00 -2.346282865570877548e-15 -9.542232595239101347e-15 0.000000000000000000e+00 2.497940868354131218e-15 3.196071297275081604e-15 -1.830175671889334570e-15 -3.267959809188477478e-15 -2.126075356063730391e-17 0.000000000000000000e+00 0.000000000000000000e+00 0.000000000000000000e+00 0.000000000000000000e+00 7.670510928164807504e-16 -4.077666524650431759e-15 0.000000000000000000e+00 -1.229812262991195037e-15 1.828176013615966010e-15 -4.010952706452304284e-01 3.985303149713404491e-01 6.438138895169364107e-01 1.905046012814036960e+00 -2.112014835280746627e-01 -1.474565114268405974e+00 1.775555561601220023e-01 7.079769663433561899e-02 6.010236661284471538e-01 -5.383405103813277970e-01 -3.045899892240795381e-01 -2.489332178101403836e-01 0.000000000000000000e+00 0.000000000000000000e+00 0.000000000000000000e+00 5.356585465743486971e-15 -3.886326519507398194e-15 0.000000000000000000e+00 2.318502636012657219e-15 -2.429175175995094432e-16 0.000000000000000000e+00 6.447483197058071261e-16 1.260615894913267811e-15 6.665526803472427059e-17 0.000000000000000000e+00 0.000000000000000000e+00 0.000000000000000000e+00 0.000000000000000000e+00 -9.407689875627381922e-16 8.242319659495701392e-16 0.000000000000000000e+00 1.974496107667341407e-15 8.913667274744693049e-17 6.447483197058071261e-16 1.260615894913267811e-15 6.665526803472427059e-17 0.000000000000000000e+00 1.343230645139770197e-15 2.087574515320638919e-15 0.000000000000000000e+00 -1.216265039586998230e-15 -6.475229069474514385e-16 0.000000000000000000e+00 -4.941191069457271917e-16 3.207121488110107061e-15 6.447483197058071261e-16 1.260615894913267811e-15 6.665526803472427059e-17 0.000000000000000000e+00 0.000000000000000000e+00 0.000000000000000000e+00 0.000000000000000000e+00 -6.320469687728059085e-16 3.278789805178351010e-15 0.000000000000000000e+00 -1.440113185523367464e-15 1.140739236412104421e-15 6.447483197058071261e-16 1.260615894913267811e-15 6.665526803472427059e-17 0.000000000000000000e+00 0.000000000000000000e+00 0.000000000000000000e+00 0.000000000000000000e+00 2.015271628775222654e-15 -1.704496744322791097e-15 0.000000000000000000e+00 1.642770227133404334e-15 2.305023680029054004e-15
6.001332851607006660e+02 -6.544118293321917130e-04 1.079237829745575000e-01 2.514828879153473140e-02 -3.254234894120262150e-02 -6.527639910511476296e-02 -5.712985718713845668e-02 -8.953592823418168867e-02 -8.102647640554830333e-02 -1.074967712223422883e-02 5.741255572977291277e-03 -5.525111343795501700e-02 5.630648272938131027e-02 3.140421458947559308e-02 1.381049049806245266e-01 -8.278690193762727745e-02 -2.615010870254983258e-02 -1.101586140866024910e-01 -8.798407720658971143e-04 1.241481089516452072e-02 -3.424534850219423422e-03 1.379943958669846704e-01 -8.826260304245167089e-04 1.796037203538584370e-01 6.772623058737284318e-02 2.633054380548455198e-02 -7.491704637120480403e-02 1.476753186764504649e-02 7.702162513163655043e-04 -1.637407236249661946e-02 2.455303274288779536e-02 1.749193629939775271e-03 -2.392533295199987531e-02 -4.848821139287465797e-03 4.045467162072545995e-03 -2.044780524382829381e-02 -5.266066912481798257e-02 -6.333251099019465702e-02 1.376821177842200705e-01 -4.151010266377509750e-02 1.922259083819737036e-01 -4.652898139690012647e-01 -3.119680079293646879e-01 -1.752009687619316136e-01 2.758506195367353420e-01 -2.286500407363460108e-01 2.350009655645987072e-01 -1.114876448810296905e-01 -1.397236105599295009e+00 1.047876171205548879e+00 -1.495382372327046294e+00 -1.780251617614276582e-01 -6.505312236903809664e-02 1.635542335415202664e-01 0.000000000000000000e+00 0.000000000000000000e+00 0.000000000000000000e+00 -3.697306293794127201e-16 -8.891172273360205149e-16 0.000000000000000000e+00 1.341945978643722665e-15 -1.235575963206722529e-15 0.000000000000000000e+00 -1.582757083530371893e-15 -3.406803229449886536e-15 4.364596814475215553e-17 0.000000000000000000e+00 0.000000000000000000e+00 0.000000000000000000e+00 0.000000000000000000e+00 -4.525238373397619426e-16 7.448574588684506819e-15 0.000000000000000000e+00 3.684886438727982753e-15 4.115821014767281010e-15 -1.582757083530371893e-15 -3.406803229449886536e-15 4.364596814475215553e-17 0.000000000000000000e+00 -2.309108168760313074e-15 -1.655671125859412026e-14 0.000000000000000000e+00 -4.464197877232420188e-15 -4.293915914733339093e-15 0.000000000000000000e+00 -2.210790130610062577e-15 1.848041765935955881e-15 -1.582757083530371893e-15 -3.406803229449886536e-15 4.364596814475215553e-17 0.000000000000000000e+00 0.000000000000000000e+00 0.000000000000000000e+00 0.000000000000000000e+00 -1.773043035583066185e-15 -8.650814411206565756e-15 0.000000000000000000e+00 2.338546628415973142e-15 4.455294208353147050e-15 -1.582757083530371893e-15 -3.406803229449886536e-15 4.364596814475215553e-17 0.000000000000000000e+00 0.000000000000000000e+00 0.000000000000000000e+00 0.000000000000000000e+00 1.529026629418359970e-15 -3.713167175977788420e-15 0.000000000000000000e+00 -1.092523888805106215e-15 2.694002952375298697e-15 -3.497094333075027039e-01 3.747934597317645333e-01 6.399460647594793494e-01 1.779819416256483988e+00 -2.094259420654238646e-01 -1.386730262909154909e+00 1.322717100741671870e-01 3.611002179633432396e-02 5.356029324844139294e-01 -4.978276489531489601e-01 -2.541115797626815054e-01 -2.072371861280955518e-01 0.000000000000000000e+00 0.000000000000000000e+00 0.000000000000000000e+00 4.720667227093718051e-15 -3.150742020376568302e-15 0.000000000000000000e+00 2.405412794269664352e-15 2.155952802778076522e-16 0.000000000000000000e+00 5.249206299442264917e-16 1.397524199926461904e-15 1.236988418922380577e-18 0.000000000000000000e+00 0.000000000000000000e+00 0.000000000000000000e+00 0.000000000000000000e+00 -9.934786642536612289e-16 5.468033029598244851e-16 0.000000000000000000e+00 1.893632367903172939e-15 -2.373406945574875386e-16 5.249206299442264917e-16 1.397524199926461904e-15 1.236988418922380577e-18 0.000000000000000000e+00 1.714384162644931994e-15 1.980867898871434846e-15 0.000000000000000000e+00 -1.090689976717633376e-15 -8.031082092120476408e-16 0.000000000000000000e+00 -7.880221059730771329e-16 2.759710396424299762e-15 5.249206299442264917e-16 1.397524199926461904e-15 1.236988418922380577e-18 0.000000000000000000e+00 0.000000000000000000e+00 0.000000000000000000e+00 0.000000000000000000e+00 -4.762521532859148105e-16 2.927192361983072180e-15 0.000000000000000000e+00 -1.696673022249417412e-15 9.003591965684148767e-16 5.249206299442264917e-16 1.397524199926461904e-15 1.236988418922380577e-18 0.000000000000000000e+00 0.000000000000000000e+00 0.000000000000000000e+00 0.000000000000000000e+00 2.151575387211791827e-15 -1.847008274786945951e-15 0.000000000000000000e+00 1.405901142885990054e-15 2.005019386620856035e-15
